# xmcd
#
# Track frame offsets:
#	150
#	12689
#	30444
#	45161
#	57700
#	69040
#	84582
#	97871
#	113338
#	126290
#
# Disc length: 1836 seconds
#
# Revision: 0
# Processed by: cddbd v1.5.2PL0 Copyright (c) Steve Scherf et al.
# Submitted via: EasyCDDAExtractor 4.6.0.1
#
DISCID=71072a0a
DTITLE=Ace In The Hole Band
DYEAR=1994
DGENRE=Country
TTITLE0=Returning The Corn
TTITLE1=You're Something Special To Me
TTITLE2=Mirrors Don't Lie
TTITLE3=What Comes Natural To A Fool
TTITLE4=I'll Be Waiting Here 'Til Then
TTITLE5=Texas Bounce
TTITLE6=Back In The Swing Of Things
TTITLE7=The Difference Between Me And Him Is You
TTITLE8=My Shoes Keep Walking Back To You
TTITLE9=I'm Ragged But I'm Right
EXTD=
EXTT0=
EXTT1=
EXTT2=
EXTT3=
EXTT4=
EXTT5=
EXTT6=
EXTT7=
EXTT8=
EXTT9=
PLAYORDER=
